#!OML:ASF E:\Steps\Project 1\Capture day 1\Session 2\Subject.ASF
:FULLY-SPECIFIED
:DEGREES
63
root 9.25628 16.3439 10.3661 -152.62 -2.68056 179.808
lowerback -28.1602 -1.02661 -5.86875
upperback -2.79378 -0.249799 -0.623064
thorax 12.5079 -0.74486 2.50641
lowerneck 0.440668 0.0940547 -4.25167
upperneck 8.88332 -0.733637 6.989
head 2.84204 -0.475076 3.03539
rclavicle 1.17283e-014 -2.38542e-015
rhumerus -36.5861 -17.8829 -80.3855
rradius 29.8055
rwrist 0.882358
rhand -9.1992 -50.637
rfingers 7.12502
rthumb 16.7547 -79.9341
lclavicle 1.17283e-014 -2.38542e-015
lhumerus -31.2722 6.81749 80.0272
lradius 21.351
lwrist -7.91367
lhand -20.3856 -11.7691
lfingers 7.12502
lthumb 5.9675 18.1269
rfemur -26.8688 10.1447 16.9914
rtibia 10.4127
rfoot -20.3972 -6.51757
rtoes -29.7643
lfemur -28.3008 -10.8508 -16.8572
ltibia 12.9395
lfoot -9.85995 2.55962
ltoes -37.6107
64
root 9.25698 16.3445 10.3677 -152.624 -2.70509 179.81
lowerback -28.2407 -1.05798 -5.91867
upperback -2.72262 -0.261283 -0.579393
thorax 12.6354 -0.754199 2.58067
lowerneck 0.448843 0.0980669 -4.27198
upperneck 8.87499 -0.727741 6.997
head 2.83764 -0.472575 3.04195
rclavicle -5.46658e-015 6.75868e-015
rhumerus -36.4758 -17.8339 -80.3782
rradius 29.8471
rwrist 0.886565
rhand -9.09518 -51.0917
rfingers 7.12502
rthumb 16.8548 -80.3802
lclavicle -5.46658e-015 6.75868e-015
lhumerus -31.2044 6.80979 80.1157
lradius 21.4128
lwrist -7.86754
lhand -20.3193 -11.7706
lfingers 7.12502
lthumb 6.03153 18.1235
rfemur -26.8316 10.1135 17.0124
rtibia 10.3511
rfoot -20.4407 -6.52869
rtoes -29.9773
lfemur -28.2991 -10.8957 -16.8325
ltibia 12.8986
lfoot -9.84842 2.57649
ltoes -37.2235
65
root 9.25688 16.3454 10.3698 -152.638 -2.71809 179.781
lowerback -28.278 -1.08051 -5.97749
upperback -2.67056 -0.261716 -0.560512
thorax 12.7167 -0.757872 2.63607
lowerneck 0.435713 0.102944 -4.28933
upperneck 8.86883 -0.718743 6.99908
head 2.83764 -0.467807 3.04618
rclavicle 3.97569e-015 -1.19271e-014
rhumerus -36.3892 -17.8792 -80.3368
rradius 29.8211
rwrist 0.980096
rhand -9.14407 -52.0152
rfingers 7.12502
rthumb 16.8078 -81.3077
lclavicle 3.97569e-015 -1.19271e-014
lhumerus -31.1275 6.72641 80.2049
lradius 21.4355
lwrist -7.78515
lhand -20.3351 -11.729
lfingers 7.12502
lthumb 6.01634 18.1655
rfemur -26.7852 10.0353 17.0056
rtibia 10.3042
rfoot -20.4736 -6.51886
rtoes -30.1982
lfemur -28.2951 -10.9525 -16.8564
ltibia 12.914
lfoot -9.84073 2.56274
ltoes -37.0249
66
root 9.25639 16.3463 10.3706 -152.676 -2.7515 179.786
lowerback -28.1093 -1.07835 -5.93293
upperback -2.74824 -0.292602 -0.589756
thorax 12.5389 -0.765814 2.56612
lowerneck 0.407272 0.0973138 -4.28349
upperneck 8.88324 -0.725941 6.9942
head 2.84817 -0.470755 3.04369
rclavicle 5.66536e-015 -2.10712e-014
rhumerus -36.5191 -17.9045 -80.339
rradius 29.7834
rwrist 1.03892
rhand -9.21234 -52.8469
rfingers 7.12502
rthumb 16.742 -82.145
lclavicle 5.66536e-015 -2.10712e-014
lhumerus -31.2824 6.56596 80.1581
lradius 21.4926
lwrist -7.66941
lhand -20.3352 -11.741
lfingers 7.12502
lthumb 6.01621 18.1536
rfemur -26.7349 10.0441 17.0188
rtibia 10.3023
rfoot -20.4547 -6.49826
rtoes -30.0642
lfemur -28.2622 -10.9529 -16.8609
ltibia 12.957
lfoot -9.84953 2.50441
ltoes -37.1971
67
root 9.25649 16.347 10.3712 -152.699 -2.78009 179.821
lowerback -27.9817 -1.07786 -5.87442
upperback -2.81609 -0.328463 -0.596202
thorax 12.395 -0.776892 2.51247
lowerneck 0.396322 0.0951939 -4.29723
upperneck 8.89585 -0.729143 6.99363
head 2.85485 -0.47274 3.04631
rclavicle -1.47101e-014 2.34566e-014
rhumerus -36.621 -17.9781 -80.3001
rradius 29.7377
rwrist 1.23327
rhand -8.81885 -52.2273
rfingers 7.12502
rthumb 17.1208 -81.493
lclavicle -1.47101e-014 2.34566e-014
lhumerus -31.4396 6.43782 80.135
lradius 21.574
lwrist -7.5334
lhand -20.3537 -11.7048
lfingers 7.12502
lthumb 5.99837 18.1902
rfemur -26.7297 10.0746 17.0567
rtibia 10.3338
rfoot -20.4352 -6.46868
rtoes -29.6876
lfemur -28.2415 -10.902 -16.8318
ltibia 12.9409
lfoot -9.84071 2.48369
ltoes -37.6725
68
root 9.25665 16.3474 10.3727 -152.69 -2.78541 179.832
lowerback -28.0899 -1.09385 -5.89751
upperback -2.74812 -0.326718 -0.565196
thorax 12.532 -0.77932 2.56126
lowerneck 0.398688 0.105035 -4.32741
upperneck 8.88742 -0.714057 6.99842
head 2.85096 -0.465734 3.05388
rclavicle -3.77691e-015 7.15625e-015
rhumerus -36.492 -18.0496 -80.2655
rradius 29.6739
rwrist 1.2945
rhand -8.77869 -51.2429
rfingers 7.12502
rthumb 17.1595 -80.5052
lclavicle -3.77691e-015 7.15625e-015
lhumerus -31.3203 6.46654 80.2041
lradius 21.5533
lwrist -7.55765
lhand -20.6099 -11.7331
lfingers 7.12502
lthumb 5.75095 18.1689
rfemur -26.7591 10.049 17.0748
rtibia 10.3667
rfoot -20.4854 -6.45121
rtoes -29.5282
lfemur -28.25 -10.878 -16.8213
ltibia 12.8782
lfoot -9.80354 2.49671
ltoes -37.6913
69
root 9.25662 16.3459 10.374 -152.655 -2.75984 179.862
lowerback -28.4457 -1.11636 -5.9451
upperback -2.54117 -0.28999 -0.505142
thorax 12.9615 -0.771945 2.66953
lowerneck 0.393938 0.130945 -4.34849
upperneck 8.85688 -0.673543 6.99807
head 2.83903 -0.445002 3.05819
rclavicle 2.18663e-015 -2.0276e-014
rhumerus -36.1219 -18.0004 -80.3237
rradius 29.66
rwrist 1.10708
rhand -9.12722 -51.1996
rfingers 7.12502
rthumb 16.824 -80.4908
lclavicle 2.18663e-015 -2.0276e-014
lhumerus -30.9394 6.67296 80.2918
lradius 21.4735
lwrist -7.73342
lhand -20.7512 -11.7154
lfingers 7.12502
lthumb 5.61455 18.1902
rfemur -26.81 10.027 17.113
rtibia 10.3787
rfoot -20.5252 -6.39787
rtoes -29.4561
lfemur -28.2979 -10.8455 -16.7964
ltibia 12.9209
lfoot -9.84309 2.517
ltoes -37.3169
70
root 9.25795 16.3448 10.3752 -152.614 -2.71911 179.904
lowerback -28.3017 -1.07741 -5.87714
upperback -2.66563 -0.288523 -0.54417
thorax 12.7377 -0.76542 2.5866
lowerneck 0.363801 0.117675 -4.29767
upperneck 8.87119 -0.692326 6.98741
head 2.85004 -0.45265 3.04493
rclavicle -2.38542e-015 2.42517e-014
rhumerus -36.3158 -17.8906 -80.3943
rradius 29.7304
rwrist 1.00798
rhand -9.13599 -51.4887
rfingers 7.12502
rthumb 16.8155 -80.7805
lclavicle -2.38542e-015 2.42517e-014
lhumerus -31.0837 6.56778 80.1707
lradius 21.4929
lwrist -7.63807
lhand -20.5762 -11.4249
lfingers 7.12502
lthumb 5.7835 18.4761
rfemur -26.9079 10.0416 17.1555
rtibia 10.4435
rfoot -20.5159 -6.37728
rtoes -29.5487
lfemur -28.3575 -10.8181 -16.7392
ltibia 12.9841
lfoot -9.90275 2.58265
ltoes -37.2113
71
root 9.25837 16.3453 10.3769 -152.596 -2.66251 179.883
lowerback -28.5324 -1.10355 -5.9606
upperback -2.5333 -0.262501 -0.522955
thorax 13.0139 -0.762651 2.66768
lowerneck 0.403627 0.146619 -4.28794
upperneck 8.84462 -0.651755 6.97532
head 2.83064 -0.433098 3.03897
rclavicle -1.59028e-015 1.51076e-014
rhumerus -36.0906 -17.9246 -80.4091
rradius 29.6769
rwrist 1.0128
rhand -9.18015 -52.0225
rfingers 7.12502
rthumb 16.773 -81.318
lclavicle -1.59028e-015 1.51076e-014
lhumerus -30.8009 6.62595 80.2023
lradius 21.4119
lwrist -7.64572
lhand -20.5419 -11.3828
lfingers 7.12502
lthumb 5.81664 18.5174
rfemur -26.9751 10.0176 17.1169
rtibia 10.4903
rfoot -20.5019 -6.31749
rtoes -29.5653
lfemur -28.3787 -10.8535 -16.7434
ltibia 12.9588
lfoot -9.92762 2.67356
ltoes -37.3852
72
root 9.25841 16.3451 10.3777 -152.6 -2.64023 179.902
lowerback -28.2155 -1.05605 -5.86606
upperback -2.73748 -0.278456 -0.593373
thorax 12.6061 -0.758821 2.52774
lowerneck 0.356546 0.127283 -4.27479
upperneck 8.8834 -0.679709 6.97124
head 2.85421 -0.4462 3.03549
rclavicle 5.96354e-015 9.93923e-015
rhumerus -36.4635 -17.8424 -80.4476
rradius 29.7185
rwrist 0.967515
rhand -9.40273 -52.5887
rfingers 7.12502
rthumb 16.5587 -81.9022
lclavicle 5.96354e-015 9.93923e-015
lhumerus -31.1733 6.57066 80.0211
lradius 21.5023
lwrist -7.67644
lhand -20.4552 -11.5545
lfingers 7.12502
lthumb 5.9004 18.3434
rfemur -26.9508 10.0089 17.1293
rtibia 10.443
rfoot -20.4897 -6.29529
rtoes -29.4561
lfemur -28.3665 -10.8553 -16.7221
ltibia 12.9333
lfoot -9.919 2.69209
ltoes -37.4731
73
root 9.25999 16.3453 10.3784 -152.61 -2.67407 179.959
lowerback -28.0863 -1.02494 -5.78776
upperback -2.79857 -0.277379 -0.610054
thorax 12.4662 -0.751335 2.46493
lowerneck 0.315418 0.1059 -4.27471
upperneck 8.89889 -0.708387 6.97907
head 2.86915 -0.459256 3.03819
rclavicle 9.54166e-015 -3.97569e-015
rhumerus -36.6209 -17.7883 -80.4967
rradius 29.8674
rwrist 0.861262
rhand -9.25348 -51.065
rfingers 7.12502
rthumb 16.7024 -80.3664
lclavicle 9.54166e-015 -3.97569e-015
lhumerus -31.2681 6.55231 79.9538
lradius 21.5703
lwrist -7.69705
lhand -20.2841 -11.5482
lfingers 7.12502
lthumb 6.06553 18.345
rfemur -26.9158 10.0988 17.1863
rtibia 10.39
rfoot -20.4631 -6.42977
rtoes -29.6845
lfemur -28.3674 -10.8305 -16.6476
ltibia 12.9201
lfoot -9.83726 2.67553
ltoes -37.6244
